{
  "accessors": [
    {
      "bufferView": 2,
      "componentType": 5126,
      "count": 1223,
      "max": [
        0.2140558362007141,
        0.21687063574790955,
        0.8085184693336487
      ],
      "min": [
        -0.2140558362007141,
        -0.21283495426177979,
        0.0
      ],
      "type": "VEC3"
    },
    {
      "bufferView": 2,
      "byteOffset": 14676,
      "componentType": 5126,
      "count": 1223,
      "max": [
        0.9999383687973022,
        1.0,
        1.0
      ],
      "min": [
        -0.9999383687973022,
        -1.0,
        -1.0
      ],
      "type": "VEC3"
    },
    {
      "bufferView": 1,
      "componentType": 5126,
      "count": 1223,
      "max": [
        0.9537560939788818,
        0.4688532054424286
      ],
      "min": [
        0.012327086180448532,
        0.020672526210546494
      ],
      "type": "VEC2"
    },
    {
      "bufferView": 1,
      "byteOffset": 9784,
      "componentType": 5126,
      "count": 1223,
      "max": [
        0.9537560939788818,
        0.4688532054424286
      ],
      "min": [
        0.012327086180448532,
        0.020672526210546494
      ],
      "type": "VEC2"
    },
    {
      "bufferView": 1,
      "byteOffset": 19568,
      "componentType": 5126,
      "count": 1223,
      "max": [
        0.9537560939788818,
        0.4688532054424286
      ],
      "min": [
        0.012327086180448532,
        0.020672526210546494
      ],
      "type": "VEC2"
    },
    {
      "bufferView": 0,
      "componentType": 5125,
      "count": 5004,
      "type": "SCALAR"
    },
    {
      "bufferView": 2,
      "byteOffset": 29352,
      "componentType": 5126,
      "count": 963,
      "max": [
        0.32500001788139343,
        0.22743622958660126,
        0.7399999499320984
      ],
      "min": [
        -0.32500001788139343,
        -0.22743622958660126,
        -1.862645149230957e-09
      ],
      "type": "VEC3"
    },
    {
      "bufferView": 2,
      "byteOffset": 40908,
      "componentType": 5126,
      "count": 963,
      "max": [
        1.0,
        1.0,
        1.0
      ],
      "min": [
        -1.0,
        -1.0,
        -1.0
      ],
      "type": "VEC3"
    },
    {
      "bufferView": 1,
      "byteOffset": 29352,
      "componentType": 5126,
      "count": 963,
      "max": [
        0.9842645525932312,
        0.9886529445648193
      ],
      "min": [
        0.012327086180448532,
        0.055397454649209976
      ],
      "type": "VEC2"
    },
    {
      "bufferView": 1,
      "byteOffset": 37056,
      "componentType": 5126,
      "count": 963,
      "max": [
        0.9842645525932312,
        0.9886529445648193
      ],
      "min": [
        0.012327086180448532,
        0.055397454649209976
      ],
      "type": "VEC2"
    },
    {
      "bufferView": 1,
      "byteOffset": 44760,
      "componentType": 5126,
      "count": 963,
      "max": [
        0.9842645525932312,
        0.9886529445648193
      ],
      "min": [
        0.012327086180448532,
        0.055397454649209976
      ],
      "type": "VEC2"
    },
    {
      "bufferView": 0,
      "byteOffset": 20016,
      "componentType": 5125,
      "count": 4068,
      "type": "SCALAR"
    }
  ],
  "asset": {
    "extras": {
      "author": "Birp20 (https://sketchfab.com/Paphonsan)",
      "license": "SKETCHFAB Standard (https://sketchfab.com/licenses)",
      "source": "https://sketchfab.com/3d-models/anime-school-desk-2d80e4463eb345e9829f66d01a1ac707",
      "title": "Anime school desk"
    },
    "generator": "Sketchfab-16.61.0",
    "version": "2.0"
  },
  "bufferViews": [
    {
      "buffer": 0,
      "byteLength": 36288,
      "name": "floatBufferViews",
      "target": 34963
    },
    {
      "buffer": 0,
      "byteLength": 52464,
      "byteOffset": 36288,
      "byteStride": 8,
      "name": "floatBufferViews",
      "target": 34962
    },
    {
      "buffer": 0,
      "byteLength": 52464,
      "byteOffset": 88752,
      "byteStride": 12,
      "name": "floatBufferViews",
      "target": 34962
    }
  ],
  "buffers": [
    {
      "byteLength": 141216,
      "uri": "scene.bin"
    }
  ],
  "images": [
    {
      "uri": "textures/m_japanschooldesk_baseColor.png"
    }
  ],
  "materials": [
    {
      "doubleSided": true,
      "name": "m_japanschooldesk",
      "pbrMetallicRoughness": {
        "baseColorTexture": {
          "index": 0
        },
        "metallicFactor": 0.0,
        "roughnessFactor": 0.5
      }
    }
  ],
  "meshes": [
    {
      "name": "japanschoolchair_m_japanschooldesk_0",
      "primitives": [
        {
          "attributes": {
            "NORMAL": 1,
            "POSITION": 0,
            "TEXCOORD_0": 2,
            "TEXCOORD_1": 3,
            "TEXCOORD_2": 4
          },
          "indices": 5,
          "material": 0,
          "mode": 4
        }
      ]
    },
    {
      "name": "japanschooldesk_m_japanschooldesk_0",
      "primitives": [
        {
          "attributes": {
            "NORMAL": 7,
            "POSITION": 6,
            "TEXCOORD_0": 8,
            "TEXCOORD_1": 9,
            "TEXCOORD_2": 10
          },
          "indices": 11,
          "material": 0,
          "mode": 4
        }
      ]
    }
  ],
  "nodes": [
    {
      "children": [
        1
      ],
      "matrix": [
        1.5312132835388184,
        0.0,
        0.0,
        0.0,
        0.0,
        3.3999764859933687e-16,
        -1.5312132835388184,
        0.0,
        0.0,
        1.5312132835388184,
        3.3999764859933687e-16,
        0.0,
        0.0,
        0.0,
        0.0,
        1.0
      ],
      "name": "Sketchfab_model"
    },
    {
      "children": [
        2
      ],
      "matrix": [
        0.009999999776482582,
        0.0,
        0.0,
        0.0,
        0.0,
        0.0,
        0.009999999776482582,
        0.0,
        0.0,
        -0.009999999776482582,
        0.0,
        0.0,
        0.0,
        0.0,
        0.0,
        1.0
      ],
      "name": "20a4b728d2ad4d8b80f025be9263f586.fbx"
    },
    {
      "children": [
        3,
        5
      ],
      "name": "RootNode"
    },
    {
      "children": [
        4
      ],
      "matrix": [
        100.0,
        0.0,
        0.0,
        0.0,
        0.0,
        -1.629206793918314e-05,
        -99.99999999999868,
        0.0,
        0.0,
        99.99999999999868,
        -1.629206793918314e-05,
        0.0,
        0.0,
        0.0,
        25.240398406982422,
        1.0
      ],
      "name": "japanschoolchair"
    },
    {
      "mesh": 0,
      "name": "japanschoolchair_m_japanschooldesk_0"
    },
    {
      "children": [
        6
      ],
      "matrix": [
        100.0,
        0.0,
        0.0,
        0.0,
        0.0,
        -1.629206793918314e-05,
        -99.99999999999868,
        0.0,
        0.0,
        99.99999999999868,
        -1.629206793918314e-05,
        0.0,
        0.0,
        0.0,
        -22.85077476501465,
        1.0
      ],
      "name": "japanschooldesk"
    },
    {
      "mesh": 1,
      "name": "japanschooldesk_m_japanschooldesk_0"
    }
  ],
  "samplers": [
    {
      "magFilter": 9729,
      "minFilter": 9987,
      "wrapS": 10497,
      "wrapT": 10497
    }
  ],
  "scene": 0,
  "scenes": [
    {
      "name": "Sketchfab_Scene",
      "nodes": [
        0
      ]
    }
  ],
  "textures": [
    {
      "sampler": 0,
      "source": 0
    }
  ]
}
