{
  "accessors": [
    {
      "bufferView": 2,
      "componentType": 5126,
      "count": 1387,
      "max": [
        1.9417610168457031,
        3.0223217010498047,
        2.2126712799072266
      ],
      "min": [
        -1.4361395835876465,
        -0.20873117446899414,
        -0.49219220876693726
      ],
      "type": "VEC3"
    },
    {
      "bufferView": 2,
      "byteOffset": 16644,
      "componentType": 5126,
      "count": 1387,
      "max": [
        1.0,
        1.0,
        1.0
      ],
      "min": [
        -1.0,
        -1.0,
        -1.0
      ],
      "type": "VEC3"
    },
    {
      "bufferView": 1,
      "componentType": 5126,
      "count": 1387,
      "max": [
        0.9387497901916504,
        0.9980079531669617
      ],
      "min": [
        0.001873752218671143,
        0.0019920319318771362
      ],
      "type": "VEC2"
    },
    {
      "bufferView": 0,
      "componentType": 5125,
      "count": 4194,
      "type": "SCALAR"
    },
    {
      "bufferView": 2,
      "byteOffset": 33288,
      "componentType": 5126,
      "count": 1725,
      "max": [
        6.044277667999268,
        2.2233757972717285,
        2.145430326461792
      ],
      "min": [
        1.8925402164459229,
        -0.20873117446899414,
        -0.48366159200668335
      ],
      "type": "VEC3"
    },
    {
      "bufferView": 2,
      "byteOffset": 53988,
      "componentType": 5126,
      "count": 1725,
      "max": [
        1.0,
        1.0,
        1.0
      ],
      "min": [
        -1.0,
        -1.0,
        -1.0
      ],
      "type": "VEC3"
    },
    {
      "bufferView": 1,
      "byteOffset": 11096,
      "componentType": 5126,
      "count": 1725,
      "max": [
        0.9770083427429199,
        0.9980078935623169
      ],
      "min": [
        0.0019501162460073829,
        0.00199203216470778
      ],
      "type": "VEC2"
    },
    {
      "bufferView": 0,
      "byteOffset": 16776,
      "componentType": 5125,
      "count": 5292,
      "type": "SCALAR"
    },
    {
      "bufferView": 2,
      "byteOffset": 74688,
      "componentType": 5126,
      "count": 2171,
      "max": [
        9.359514236450195,
        2.7374961376190186,
        2.1990175247192383
      ],
      "min": [
        5.392209529876709,
        -0.20873117446899414,
        -0.6263844966888428
      ],
      "type": "VEC3"
    },
    {
      "bufferView": 2,
      "byteOffset": 100740,
      "componentType": 5126,
      "count": 2171,
      "max": [
        1.0,
        1.0,
        1.0
      ],
      "min": [
        -1.0,
        -1.0,
        -1.0
      ],
      "type": "VEC3"
    },
    {
      "bufferView": 1,
      "byteOffset": 24896,
      "componentType": 5126,
      "count": 2171,
      "max": [
        0.9909539818763733,
        0.9980080723762512
      ],
      "min": [
        0.0019779521971940994,
        0.00199203216470778
      ],
      "type": "VEC2"
    },
    {
      "bufferView": 0,
      "byteOffset": 37944,
      "componentType": 5125,
      "count": 6564,
      "type": "SCALAR"
    }
  ],
  "asset": {
    "extras": {
      "author": "SmolShadyStudios (https://sketchfab.com/SmolShadyStudios)",
      "license": "CC-BY-4.0 (http://creativecommons.org/licenses/by/4.0/)",
      "source": "https://sketchfab.com/3d-models/wooden-toy-train-d296506ab0304cf5a5d24eb5ed9f0ba1",
      "title": "Wooden Toy Train"
    },
    "generator": "Sketchfab-12.67.0",
    "version": "2.0"
  },
  "bufferViews": [
    {
      "buffer": 0,
      "byteLength": 64200,
      "name": "floatBufferViews",
      "target": 34963
    },
    {
      "buffer": 0,
      "byteLength": 42264,
      "byteOffset": 64200,
      "byteStride": 8,
      "name": "floatBufferViews",
      "target": 34962
    },
    {
      "buffer": 0,
      "byteLength": 126792,
      "byteOffset": 106464,
      "byteStride": 12,
      "name": "floatBufferViews",
      "target": 34962
    }
  ],
  "buffers": [
    {
      "byteLength": 233256,
      "uri": "scene.bin"
    }
  ],
  "images": [
    {
      "uri": "textures/wood1_baseColor.png"
    }
  ],
  "materials": [
    {
      "doubleSided": true,
      "name": "wood1",
      "pbrMetallicRoughness": {
        "baseColorTexture": {
          "index": 0
        },
        "metallicFactor": 0.0,
        "roughnessFactor": 0.9207483815999999
      }
    }
  ],
  "meshes": [
    {
      "name": "wagon2_wood1_0",
      "primitives": [
        {
          "attributes": {
            "NORMAL": 1,
            "POSITION": 0,
            "TEXCOORD_0": 2
          },
          "indices": 3,
          "material": 0,
          "mode": 4
        }
      ]
    },
    {
      "name": "wagon1_wood1_0",
      "primitives": [
        {
          "attributes": {
            "NORMAL": 5,
            "POSITION": 4,
            "TEXCOORD_0": 6
          },
          "indices": 7,
          "material": 0,
          "mode": 4
        }
      ]
    },
    {
      "name": "train_wood1_0",
      "primitives": [
        {
          "attributes": {
            "NORMAL": 9,
            "POSITION": 8,
            "TEXCOORD_0": 10
          },
          "indices": 11,
          "material": 0,
          "mode": 4
        }
      ]
    }
  ],
  "nodes": [
    {
      "children": [
        1
      ],
      "matrix": [
        1.0,
        0.0,
        0.0,
        0.0,
        0.0,
        2.220446049250313e-16,
        -1.0,
        0.0,
        0.0,
        1.0,
        2.220446049250313e-16,
        0.0,
        0.0,
        0.0,
        0.0,
        1.0
      ],
      "name": "Sketchfab_model"
    },
    {
      "children": [
        2
      ],
      "matrix": [
        1.0,
        0.0,
        0.0,
        0.0,
        0.0,
        0.0,
        1.0,
        0.0,
        0.0,
        -1.0,
        0.0,
        0.0,
        0.0,
        0.0,
        0.0,
        1.0
      ],
      "name": "103deda0fb954b009d2e875fd620a2ab.fbx"
    },
    {
      "children": [
        3,
        5,
        7
      ],
      "name": "RootNode"
    },
    {
      "children": [
        4
      ],
      "matrix": [
        1.0,
        0.0,
        0.0,
        0.0,
        0.0,
        1.0,
        0.0,
        0.0,
        0.0,
        0.0,
        1.0,
        0.0,
        -1.2936780452728271,
        0.0,
        -8.620036125183105,
        1.0
      ],
      "name": "wagon2"
    },
    {
      "mesh": 0,
      "name": "wagon2_wood1_0"
    },
    {
      "children": [
        6
      ],
      "matrix": [
        1.0,
        0.0,
        0.0,
        0.0,
        0.0,
        1.0,
        0.0,
        0.0,
        0.0,
        0.0,
        1.0,
        0.0,
        -1.770904302597046,
        0.0,
        -8.586495399475098,
        1.0
      ],
      "name": "wagon1"
    },
    {
      "mesh": 1,
      "name": "wagon1_wood1_0"
    },
    {
      "children": [
        8
      ],
      "matrix": [
        1.0,
        0.0,
        0.0,
        0.0,
        0.0,
        1.0,
        0.0,
        0.0,
        0.0,
        0.0,
        1.0,
        0.0,
        -1.7628790140151978,
        0.0,
        -8.613103866577148,
        1.0
      ],
      "name": "train"
    },
    {
      "mesh": 2,
      "name": "train_wood1_0"
    }
  ],
  "samplers": [
    {
      "magFilter": 9729,
      "minFilter": 9987,
      "wrapS": 10497,
      "wrapT": 10497
    }
  ],
  "scene": 0,
  "scenes": [
    {
      "name": "Sketchfab_Scene",
      "nodes": [
        0
      ]
    }
  ],
  "textures": [
    {
      "sampler": 0,
      "source": 0
    }
  ]
}
