{
  "accessors": [
    {
      "bufferView": 2,
      "componentType": 5126,
      "count": 4,
      "max": [
        2.5272200107574463,
        119.99993896484375,
        56.0
      ],
      "min": [
        2.5272200107574463,
        -120.0000228881836,
        -56.0
      ],
      "type": "VEC3"
    },
    {
      "bufferView": 2,
      "byteOffset": 48,
      "componentType": 5126,
      "count": 4,
      "max": [
        1.0,
        -0.0,
        0.0
      ],
      "min": [
        1.0,
        -0.0,
        0.0
      ],
      "type": "VEC3"
    },
    {
      "bufferView": 1,
      "componentType": 5126,
      "count": 4,
      "max": [
        1.0,
        0.9666699767112732
      ],
      "min": [
        0.0,
        0.033330000936985016
      ],
      "type": "VEC2"
    },
    {
      "bufferView": 1,
      "byteOffset": 32,
      "componentType": 5126,
      "count": 4,
      "max": [
        1.0,
        0.9666699767112732
      ],
      "min": [
        0.0,
        0.033330000936985016
      ],
      "type": "VEC2"
    },
    {
      "bufferView": 0,
      "componentType": 5125,
      "count": 6,
      "type": "SCALAR"
    },
    {
      "bufferView": 2,
      "byteOffset": 96,
      "componentType": 5126,
      "count": 104,
      "max": [
        15.473139762878418,
        128.00013732910156,
        64.00018310546875
      ],
      "min": [
        -2.5274100303649902,
        -127.99990844726563,
        -64.0000228881836
      ],
      "type": "VEC3"
    },
    {
      "bufferView": 2,
      "byteOffset": 1344,
      "componentType": 5126,
      "count": 104,
      "max": [
        1.0,
        1.0,
        1.0
      ],
      "min": [
        -1.0,
        -1.0,
        -1.0
      ],
      "type": "VEC3"
    },
    {
      "bufferView": 3,
      "componentType": 5126,
      "count": 104,
      "max": [
        1.0,
        1.0,
        8.265184874289844e-07,
        1.0
      ],
      "min": [
        0.0,
        0.0,
        -1.9140377844450995e-05,
        -1.0
      ],
      "type": "VEC4"
    },
    {
      "bufferView": 1,
      "byteOffset": 64,
      "componentType": 5126,
      "count": 104,
      "max": [
        0.9922999739646912,
        0.9893400073051453
      ],
      "min": [
        0.008609999902546406,
        0.006000000052154064
      ],
      "type": "VEC2"
    },
    {
      "bufferView": 1,
      "byteOffset": 896,
      "componentType": 5126,
      "count": 104,
      "max": [
        0.9922999739646912,
        0.9893400073051453
      ],
      "min": [
        0.008609999902546406,
        0.006000000052154064
      ],
      "type": "VEC2"
    },
    {
      "bufferView": 1,
      "byteOffset": 1728,
      "componentType": 5126,
      "count": 104,
      "max": [
        0.9922999739646912,
        0.9893400073051453
      ],
      "min": [
        0.008609999902546406,
        0.006000000052154064
      ],
      "type": "VEC2"
    },
    {
      "bufferView": 0,
      "byteOffset": 24,
      "componentType": 5125,
      "count": 156,
      "type": "SCALAR"
    }
  ],
  "asset": {
    "extras": {
      "author": "Dandi8 (https://sketchfab.com/dandi8)",
      "license": "CC-BY-4.0 (http://creativecommons.org/licenses/by/4.0/)",
      "source": "https://sketchfab.com/3d-models/blackboard-8wWnZz0SjaomRC9rVOSzMdrOaTV",
      "title": "Blackboard"
    },
    "generator": "Sketchfab-15.25.0",
    "version": "2.0"
  },
  "bufferViews": [
    {
      "buffer": 0,
      "byteLength": 648,
      "name": "floatBufferViews",
      "target": 34963
    },
    {
      "buffer": 0,
      "byteLength": 2560,
      "byteOffset": 648,
      "byteStride": 8,
      "name": "floatBufferViews",
      "target": 34962
    },
    {
      "buffer": 0,
      "byteLength": 2592,
      "byteOffset": 3208,
      "byteStride": 12,
      "name": "floatBufferViews",
      "target": 34962
    },
    {
      "buffer": 0,
      "byteLength": 1664,
      "byteOffset": 5800,
      "byteStride": 16,
      "name": "floatBufferViews",
      "target": 34962
    }
  ],
  "buffers": [
    {
      "byteLength": 7464,
      "uri": "scene.bin"
    }
  ],
  "images": [
    {
      "uri": "textures/Board.002_baseColor.png"
    },
    {
      "uri": "textures/Frame.002_baseColor.png"
    },
    {
      "uri": "textures/Frame.002_normal.png"
    }
  ],
  "materials": [
    {
      "doubleSided": true,
      "name": "Board.002",
      "pbrMetallicRoughness": {
        "baseColorTexture": {
          "index": 0
        },
        "metallicFactor": 0.0,
        "roughnessFactor": 0.4
      }
    },
    {
      "doubleSided": true,
      "name": "Frame.002",
      "normalTexture": {
        "index": 2,
        "scale": 0.531
      },
      "pbrMetallicRoughness": {
        "baseColorTexture": {
          "index": 1
        },
        "metallicFactor": 0.0,
        "roughnessFactor": 0.4
      }
    }
  ],
  "meshes": [
    {
      "name": "Blackboard_lp.000_0",
      "primitives": [
        {
          "attributes": {
            "NORMAL": 1,
            "POSITION": 0,
            "TEXCOORD_0": 2,
            "TEXCOORD_1": 3
          },
          "indices": 4,
          "material": 0,
          "mode": 4
        }
      ]
    },
    {
      "name": "Blackboard_lp.000_1",
      "primitives": [
        {
          "attributes": {
            "NORMAL": 6,
            "POSITION": 5,
            "TANGENT": 7,
            "TEXCOORD_0": 8,
            "TEXCOORD_1": 9,
            "TEXCOORD_2": 10
          },
          "indices": 11,
          "material": 1,
          "mode": 4
        }
      ]
    }
  ],
  "nodes": [
    {
      "children": [
        1
      ],
      "matrix": [
        1.0,
        0.0,
        0.0,
        0.0,
        0.0,
        2.220446049250313e-16,
        -1.0,
        0.0,
        0.0,
        1.0,
        2.220446049250313e-16,
        0.0,
        0.0,
        0.0,
        0.0,
        1.0
      ],
      "name": "Sketchfab_model"
    },
    {
      "children": [
        2,
        4,
        7
      ],
      "name": "Root"
    },
    {
      "children": [
        3
      ],
      "matrix": [
        -0.28452000000000005,
        0.5936500000000001,
        0.7527500000000001,
        0.0,
        -0.7100700000000001,
        -0.6580400000000002,
        0.25057,
        0.0,
        0.6440900000000002,
        -0.46321,
        0.6087600000000001,
        0.0,
        70.12602,
        -18.09337,
        -15.953750000000001,
        1.0
      ],
      "name": "Sun.002"
    },
    {
      "name": "Sun.002"
    },
    {
      "children": [
        5,
        6
      ],
      "matrix": [
        1.0,
        0.0,
        0.0,
        0.0,
        0.0,
        1.0,
        0.0,
        0.0,
        0.0,
        0.0,
        1.0,
        0.0,
        -1.47278,
        -0.0,
        0.0,
        1.0
      ],
      "name": "Blackboard_lp.000"
    },
    {
      "mesh": 0,
      "name": "Blackboard_lp.000_0"
    },
    {
      "mesh": 1,
      "name": "Blackboard_lp.000_1"
    },
    {
      "children": [
        8
      ],
      "matrix": [
        0.26955,
        -0.019510000000000003,
        -0.9627900000000001,
        0.0,
        -0.5045299999999999,
        -0.85446,
        -0.12394000000000001,
        0.0,
        -0.8202400000000001,
        0.51916,
        -0.24017,
        0.0,
        64.61160000000001,
        -1.47538,
        15.66604,
        1.0
      ],
      "name": "Sun.001"
    },
    {
      "name": "Sun.001"
    }
  ],
  "samplers": [
    {
      "magFilter": 9729,
      "minFilter": 9987,
      "wrapS": 10497,
      "wrapT": 10497
    }
  ],
  "scene": 0,
  "scenes": [
    {
      "name": "Sketchfab_Scene",
      "nodes": [
        0
      ]
    }
  ],
  "textures": [
    {
      "sampler": 0,
      "source": 0
    },
    {
      "sampler": 0,
      "source": 1
    },
    {
      "sampler": 0,
      "source": 2
    }
  ]
}
