{
  "accessors": [
    {
      "bufferView": 2,
      "componentType": 5126,
      "count": 233,
      "max": [
        1.8844640254974365,
        2.1519429683685303,
        2.214984893798828
      ],
      "min": [
        -1.6761640310287476,
        0.4705840051174164,
        -2.316431999206543
      ],
      "type": "VEC3"
    },
    {
      "bufferView": 2,
      "byteOffset": 2796,
      "componentType": 5126,
      "count": 233,
      "max": [
        0.8963162302970886,
        0.9961875677108765,
        0.9195433259010315
      ],
      "min": [
        -0.8234682679176331,
        0.3225094974040985,
        -0.841916024684906
      ],
      "type": "VEC3"
    },
    {
      "bufferView": 3,
      "componentType": 5126,
      "count": 233,
      "max": [
        0.998515248298645,
        0.894314169883728,
        0.2991989552974701,
        1.0
      ],
      "min": [
        -0.9628832340240479,
        -0.8414908647537231,
        -0.9947108626365662,
        1.0
      ],
      "type": "VEC4"
    },
    {
      "bufferView": 1,
      "componentType": 5126,
      "count": 233,
      "max": [
        0.9997730255126953,
        0.8629199862480164
      ],
      "min": [
        0.00022699999681208283,
        0.00022699999681208283
      ],
      "type": "VEC2"
    },
    {
      "bufferView": 0,
      "componentType": 5125,
      "count": 861,
      "type": "SCALAR"
    },
    {
      "bufferView": 2,
      "byteOffset": 5592,
      "componentType": 5126,
      "count": 178,
      "max": [
        0.20160500705242157,
        1.516440987586975,
        0.2550019919872284
      ],
      "min": [
        -0.1555040031671524,
        -0.05771299824118614,
        -0.19368599355220795
      ],
      "type": "VEC3"
    },
    {
      "bufferView": 2,
      "byteOffset": 7728,
      "componentType": 5126,
      "count": 178,
      "max": [
        0.9902315139770508,
        0.9732639193534851,
        0.998970091342926
      ],
      "min": [
        -0.9971752762794495,
        -0.98397296667099,
        -0.9991949200630188
      ],
      "type": "VEC3"
    },
    {
      "bufferView": 3,
      "byteOffset": 3728,
      "componentType": 5126,
      "count": 178,
      "max": [
        0.992419421672821,
        0.8856387138366699,
        0.9920780658721924,
        1.0
      ],
      "min": [
        -0.9913386702537537,
        -0.7241070866584778,
        -0.9983082413673401,
        1.0
      ],
      "type": "VEC4"
    },
    {
      "bufferView": 1,
      "byteOffset": 1864,
      "componentType": 5126,
      "count": 178,
      "max": [
        0.8152920007705688,
        0.9998990297317505
      ],
      "min": [
        0.00010099999781232327,
        0.00010099999781232327
      ],
      "type": "VEC2"
    },
    {
      "bufferView": 0,
      "byteOffset": 3444,
      "componentType": 5125,
      "count": 852,
      "type": "SCALAR"
    }
  ],
  "asset": {
    "extras": {
      "author": "galaxxxy (https://sketchfab.com/galaxxxy)",
      "license": "CC-BY-4.0 (http://creativecommons.org/licenses/by/4.0/)",
      "source": "https://sketchfab.com/3d-models/palm-tree-95cd1a77789241ee82a960bad5dfe809",
      "title": "Palm tree"
    },
    "generator": "Sketchfab-12.67.0",
    "version": "2.0"
  },
  "bufferViews": [
    {
      "buffer": 0,
      "byteLength": 6852,
      "name": "floatBufferViews",
      "target": 34963
    },
    {
      "buffer": 0,
      "byteLength": 3288,
      "byteOffset": 6852,
      "byteStride": 8,
      "name": "floatBufferViews",
      "target": 34962
    },
    {
      "buffer": 0,
      "byteLength": 9864,
      "byteOffset": 10140,
      "byteStride": 12,
      "name": "floatBufferViews",
      "target": 34962
    },
    {
      "buffer": 0,
      "byteLength": 6576,
      "byteOffset": 20004,
      "byteStride": 16,
      "name": "floatBufferViews",
      "target": 34962
    }
  ],
  "buffers": [
    {
      "byteLength": 26580,
      "uri": "scene.bin"
    }
  ],
  "images": [
    {
      "uri": "textures/None.001_baseColor.png"
    },
    {
      "uri": "textures/None.001_metallicRoughness.png"
    },
    {
      "uri": "textures/None.001_normal.png"
    },
    {
      "uri": "textures/None_baseColor.png"
    },
    {
      "uri": "textures/None_metallicRoughness.png"
    },
    {
      "uri": "textures/None_normal.png"
    }
  ],
  "materials": [
    {
      "doubleSided": true,
      "name": "None.001",
      "normalTexture": {
        "index": 2
      },
      "occlusionTexture": {
        "index": 1
      },
      "pbrMetallicRoughness": {
        "baseColorTexture": {
          "index": 0
        },
        "metallicFactor": 0.0,
        "metallicRoughnessTexture": {
          "index": 1
        }
      }
    },
    {
      "name": "None",
      "normalTexture": {
        "index": 5
      },
      "occlusionTexture": {
        "index": 4
      },
      "pbrMetallicRoughness": {
        "baseColorTexture": {
          "index": 3
        },
        "metallicFactor": 0.0,
        "metallicRoughnessTexture": {
          "index": 4
        }
      }
    }
  ],
  "meshes": [
    {
      "name": "BezierCurve.028_CUBezierCurve.028_None.001_0",
      "primitives": [
        {
          "attributes": {
            "NORMAL": 1,
            "POSITION": 0,
            "TANGENT": 2,
            "TEXCOORD_0": 3
          },
          "indices": 4,
          "material": 0,
          "mode": 4
        }
      ]
    },
    {
      "name": "Plane.004_None_0",
      "primitives": [
        {
          "attributes": {
            "NORMAL": 6,
            "POSITION": 5,
            "TANGENT": 7,
            "TEXCOORD_0": 8
          },
          "indices": 9,
          "material": 1,
          "mode": 4
        }
      ]
    }
  ],
  "nodes": [
    {
      "children": [
        1
      ],
      "matrix": [
        1.0,
        0.0,
        0.0,
        0.0,
        0.0,
        2.220446049250313e-16,
        -1.0,
        0.0,
        0.0,
        1.0,
        2.220446049250313e-16,
        0.0,
        0.0,
        0.0,
        0.0,
        1.0
      ],
      "name": "Sketchfab_model"
    },
    {
      "children": [
        2
      ],
      "matrix": [
        1.0,
        0.0,
        0.0,
        0.0,
        0.0,
        0.0,
        1.0,
        0.0,
        0.0,
        -1.0,
        0.0,
        0.0,
        0.0,
        0.0,
        0.0,
        1.0
      ],
      "name": "ae6464a44e6e44cb9b1cc46d0667ceb3.fbx"
    },
    {
      "children": [
        3,
        5
      ],
      "name": "RootNode"
    },
    {
      "children": [
        4
      ],
      "matrix": [
        65.82373046875,
        0.0,
        0.0,
        0.0,
        0.0,
        65.82373046874912,
        1.0724046318057135e-05,
        0.0,
        0.0,
        -1.0724046318057135e-05,
        65.82373046874912,
        0.0,
        0.0,
        45.806705474853516,
        0.0,
        1.0
      ],
      "name": "BezierCurve.028_CUBezierCurve.028"
    },
    {
      "mesh": 0,
      "name": "BezierCurve.028_CUBezierCurve.028_None.001_0"
    },
    {
      "children": [
        6
      ],
      "matrix": [
        100.0,
        0.0,
        0.0,
        0.0,
        0.0,
        99.99999999999866,
        1.6292067073209114e-05,
        0.0,
        0.0,
        -1.6292067073209114e-05,
        99.99999999999866,
        0.0,
        0.0,
        0.0,
        0.0,
        1.0
      ],
      "name": "Plane.004"
    },
    {
      "mesh": 1,
      "name": "Plane.004_None_0"
    }
  ],
  "samplers": [
    {
      "magFilter": 9729,
      "minFilter": 9987,
      "wrapS": 10497,
      "wrapT": 10497
    }
  ],
  "scene": 0,
  "scenes": [
    {
      "name": "Sketchfab_Scene",
      "nodes": [
        0
      ]
    }
  ],
  "textures": [
    {
      "sampler": 0,
      "source": 0
    },
    {
      "sampler": 0,
      "source": 1
    },
    {
      "sampler": 0,
      "source": 2
    },
    {
      "sampler": 0,
      "source": 3
    },
    {
      "sampler": 0,
      "source": 4
    },
    {
      "sampler": 0,
      "source": 5
    }
  ]
}
